<svg width="18" height="18" viewBox="0 0 18 18" fill="none" xmlns="http://www.w3.org/2000/svg">
<rect x="4.26306" y="12.2764" width="9.47368" height="1.26316" fill="white"/>
<path d="M3 9.75H4.26316V13.5395C3.56554 13.5395 3 12.9739 3 12.2763V9.75Z" fill="white"/>
<path d="M15 9.75H13.7368V13.5395C14.4345 13.5395 15 12.9739 15 12.2763V9.75Z" fill="white"/>
<path d="M9.31579 3.75C9.31579 3.57559 9.17441 3.43421 9 3.43421C8.82559 3.43421 8.68421 3.57559 8.68421 3.75L9.31579 3.75ZM8.7767 9.9733C8.90003 10.0966 9.09997 10.0966 9.2233 9.9733L11.233 7.96362C11.3563 7.8403 11.3563 7.64035 11.233 7.51703C11.1096 7.39371 10.9097 7.39371 10.7864 7.51703L9 9.30341L7.21363 7.51703C7.0903 7.39371 6.89036 7.39371 6.76703 7.51703C6.64371 7.64035 6.64371 7.8403 6.76703 7.96363L8.7767 9.9733ZM8.68421 3.75L8.68421 9.75L9.31579 9.75L9.31579 3.75L8.68421 3.75Z" fill="white"/>
</svg>
