<svg width="110" height="110" viewBox="0 0 110 110" fill="none" xmlns="http://www.w3.org/2000/svg">
<g filter="url(#filter0_d_156_706)">
<circle cx="55" cy="45" r="35" fill="white"/>
</g>
<circle cx="55.0001" cy="45.0001" r="17.0001" fill="white"/>
<ellipse cx="55" cy="54.0674" rx="9.56254" ry="2.04911" fill="#F8C301"/>
<ellipse cx="55" cy="53.794" rx="9.56254" ry="2.04911" fill="white"/>
<ellipse cx="55" cy="52.8892" rx="8.36722" ry="1.79298" fill="#22355D"/>
<ellipse cx="55" cy="52.6499" rx="8.36722" ry="1.79298" fill="white"/>
<ellipse cx="54.9999" cy="52.8889" rx="1.67372" ry="0.358653" fill="#F8C301"/>
<path d="M62.1719 39.1741C62.1719 44.1457 55.9933 51.0963 55 51.0963C54.0068 51.0963 47.8281 44.1457 47.8281 39.1741C47.8281 35.1961 51.0391 31.9712 55 31.9712C58.961 31.9712 62.1719 35.1961 62.1719 39.1741Z" fill="#60C1F8"/>
<circle cx="55" cy="40.3381" r="3.58595" fill="white"/>
<defs>
<filter id="filter0_d_156_706" x="0" y="0" width="110" height="110" filterUnits="userSpaceOnUse" color-interpolation-filters="sRGB">
<feFlood flood-opacity="0" result="BackgroundImageFix"/>
<feColorMatrix in="SourceAlpha" type="matrix" values="0 0 0 0 0 0 0 0 0 0 0 0 0 0 0 0 0 0 127 0" result="hardAlpha"/>
<feOffset dy="10"/>
<feGaussianBlur stdDeviation="10"/>
<feComposite in2="hardAlpha" operator="out"/>
<feColorMatrix type="matrix" values="0 0 0 0 0 0 0 0 0 0 0 0 0 0 0 0 0 0 0.04 0"/>
<feBlend mode="normal" in2="BackgroundImageFix" result="effect1_dropShadow_156_706"/>
<feBlend mode="normal" in="SourceGraphic" in2="effect1_dropShadow_156_706" result="shape"/>
</filter>
</defs>
</svg>
