<svg width="110" height="110" viewBox="0 0 110 110" fill="none" xmlns="http://www.w3.org/2000/svg">
<g filter="url(#filter0_d_156_722)">
<circle cx="55" cy="45" r="35" fill="white"/>
</g>
<rect x="40.7559" y="44.593" width="9.11105" height="13.8898" stroke="#F8C301" stroke-width="0.813954"/>
<rect x="43.6572" y="46.3916" width="3.30834" height="3.30834" fill="#60C1F8"/>
<rect x="43.6572" y="53.1919" width="3.30834" height="3.30834" fill="#60C1F8"/>
<mask id="path-5-inside-1_156_722" fill="white">
<path fill-rule="evenodd" clip-rule="evenodd" d="M55.3385 34.8073C55.141 34.5968 54.8067 34.5968 54.6092 34.8073L47.4869 42.3988C47.1874 42.7181 47.4138 43.2409 47.8516 43.2409H49.2761V58.8374H60.6715V43.2409H62.0961C62.5339 43.2409 62.7603 42.7181 62.4607 42.3988L55.3385 34.8073Z"/>
</mask>
<path fill-rule="evenodd" clip-rule="evenodd" d="M55.3385 34.8073C55.141 34.5968 54.8067 34.5968 54.6092 34.8073L47.4869 42.3988C47.1874 42.7181 47.4138 43.2409 47.8516 43.2409H49.2761V58.8374H60.6715V43.2409H62.0961C62.5339 43.2409 62.7603 42.7181 62.4607 42.3988L55.3385 34.8073Z" fill="white"/>
<path d="M54.6092 34.8073L55.2028 35.3642V35.3642L54.6092 34.8073ZM55.3385 34.8073L54.7449 35.3642V35.3642L55.3385 34.8073ZM47.4869 42.3988L46.8933 41.8419H46.8933L47.4869 42.3988ZM49.2761 43.2409H50.0901V42.4269H49.2761V43.2409ZM49.2761 58.8374H48.4622V59.6513H49.2761V58.8374ZM60.6715 58.8374V59.6513H61.4855V58.8374H60.6715ZM60.6715 43.2409V42.4269H59.8576V43.2409H60.6715ZM62.4607 42.3988L61.8671 42.9557L61.8671 42.9557L62.4607 42.3988ZM55.2028 35.3642C55.0788 35.4964 54.8689 35.4964 54.7449 35.3642L55.9321 34.2504C55.413 33.6971 54.5346 33.6972 54.0156 34.2504L55.2028 35.3642ZM48.0805 42.9557L55.2028 35.3642L54.0156 34.2504L46.8933 41.8419L48.0805 42.9557ZM47.8516 42.4269C48.1265 42.4269 48.2686 42.7552 48.0805 42.9557L46.8933 41.8419C46.1061 42.6809 46.7011 44.0548 47.8516 44.0548V42.4269ZM49.2761 42.4269H47.8516V44.0548H49.2761V42.4269ZM50.0901 58.8374V43.2409H48.4622V58.8374H50.0901ZM60.6715 58.0234H49.2761V59.6513H60.6715V58.0234ZM59.8576 43.2409V58.8374H61.4855V43.2409H59.8576ZM62.0961 42.4269H60.6715V44.0548H62.0961V42.4269ZM61.8671 42.9557C61.6791 42.7552 61.8212 42.4269 62.0961 42.4269V44.0548C63.2466 44.0548 63.8415 42.6809 63.0543 41.8419L61.8671 42.9557ZM54.7449 35.3642L61.8671 42.9557L63.0543 41.8419L55.9321 34.2504L54.7449 35.3642Z" fill="#F8C301" mask="url(#path-5-inside-1_156_722)"/>
<circle cx="55.0001" cy="42.5581" r="2.03488" stroke="#60C1F8" stroke-width="0.813954"/>
<rect x="60.2908" y="44.5405" width="9.11105" height="13.8898" stroke="#F8C301" stroke-width="0.813954"/>
<rect x="63.1921" y="46.3391" width="3.30834" height="3.30834" fill="#60C1F8"/>
<rect x="63.1921" y="53.1396" width="3.30834" height="3.30834" fill="#60C1F8"/>
<rect x="52.2443" y="49.5698" width="5.51163" height="7.95349" stroke="#60C1F8"/>
<rect x="52.1512" y="47.0349" width="5.69767" height="0.813953" stroke="#60C1F8" stroke-width="0.813953"/>
<path d="M56.9956 31.8061L55.0657 32.3632V31.249L56.9956 31.8061Z" fill="#FFBF00"/>
<rect x="54.79" y="31.1628" width="0.367593" height="3.49213" rx="0.183796" fill="#0C101A"/>
<defs>
<filter id="filter0_d_156_722" x="0" y="0" width="110" height="110" filterUnits="userSpaceOnUse" color-interpolation-filters="sRGB">
<feFlood flood-opacity="0" result="BackgroundImageFix"/>
<feColorMatrix in="SourceAlpha" type="matrix" values="0 0 0 0 0 0 0 0 0 0 0 0 0 0 0 0 0 0 127 0" result="hardAlpha"/>
<feOffset dy="10"/>
<feGaussianBlur stdDeviation="10"/>
<feComposite in2="hardAlpha" operator="out"/>
<feColorMatrix type="matrix" values="0 0 0 0 0 0 0 0 0 0 0 0 0 0 0 0 0 0 0.04 0"/>
<feBlend mode="normal" in2="BackgroundImageFix" result="effect1_dropShadow_156_722"/>
<feBlend mode="normal" in="SourceGraphic" in2="effect1_dropShadow_156_722" result="shape"/>
</filter>
</defs>
</svg>
