<svg width="110" height="110" viewBox="0 0 110 110" fill="none" xmlns="http://www.w3.org/2000/svg">
<g filter="url(#filter0_d_156_690)">
<circle cx="55" cy="45" r="35" fill="white"/>
</g>
<rect x="38.1462" y="43.5073" width="29.0222" height="1.35618" fill="#F8C301"/>
<path d="M61.4725 44.321C61.4725 52.2604 57.5258 58.6965 52.6573 58.6965C47.7888 58.6965 43.8422 52.2604 43.8422 44.321C43.8422 36.3817 47.7888 29.9456 52.6573 29.9456C57.5258 29.9456 61.4725 36.3817 61.4725 44.321ZM44.8038 44.321C44.8038 51.3943 48.3199 57.1283 52.6573 57.1283C56.9947 57.1283 60.5109 51.3943 60.5109 44.321C60.5109 37.2478 56.9947 31.5137 52.6573 31.5137C48.3199 31.5137 44.8038 37.2478 44.8038 44.321Z" fill="#F8C301"/>
<path d="M67.1684 44.321C67.1684 52.2604 60.6716 58.6965 52.6573 58.6965C44.6431 58.6965 38.1462 52.2604 38.1462 44.321C38.1462 36.3817 44.6431 29.9456 52.6573 29.9456C60.6716 29.9456 67.1684 36.3817 67.1684 44.321ZM39.4212 44.321C39.4212 51.5629 45.3472 57.4335 52.6573 57.4335C59.9675 57.4335 65.8935 51.5629 65.8935 44.321C65.8935 37.0792 59.9675 31.2086 52.6573 31.2086C45.3472 31.2086 39.4212 37.0792 39.4212 44.321Z" fill="#F8C301"/>
<rect x="51.9792" y="29.9456" width="1.35618" height="28.751" fill="#F8C301"/>
<path d="M62.5574 34.9634C62.5574 37.2853 58.0643 39.1676 52.5217 39.1676C46.9791 39.1676 42.486 37.2853 42.486 34.9634C42.486 32.6415 46.9791 30.7593 52.5217 30.7593C58.0643 30.7593 62.5574 32.6415 62.5574 34.9634ZM44.4974 34.9634C44.4974 36.8199 48.09 38.3249 52.5217 38.3249C56.9534 38.3249 60.546 36.8199 60.546 34.9634C60.546 33.1069 56.9534 31.6019 52.5217 31.6019C48.09 31.6019 44.4974 33.1069 44.4974 34.9634Z" fill="#F8C301"/>
<path d="M62.5574 53.4075C62.5574 55.8792 58.0643 57.8829 52.5217 57.8829C46.9791 57.8829 42.486 55.8792 42.486 53.4075C42.486 50.9358 46.9791 48.9321 52.5217 48.9321C58.0643 48.9321 62.5574 50.9358 62.5574 53.4075ZM43.7793 53.4075C43.7793 55.5607 47.6934 57.3061 52.5217 57.3061C57.3499 57.3061 61.264 55.5607 61.264 53.4075C61.264 51.2544 57.3499 49.5089 52.5217 49.5089C47.6934 49.5089 43.7793 51.2544 43.7793 53.4075Z" fill="#F8C301"/>
<path d="M64.911 57.3212L57.9347 44.0027C57.8428 43.8273 58.0147 43.6305 58.2009 43.6981L72.5326 48.8981C72.7107 48.9627 72.7263 49.2084 72.5579 49.295L68.5355 51.3637C68.3997 51.4335 68.3766 51.6179 68.4908 51.7191L72.8424 55.5733C72.9302 55.6511 72.9403 55.7846 72.8652 55.8747L71.787 57.1685C71.7086 57.2626 71.568 57.2732 71.4764 57.1921L67.1318 53.344C67.0183 53.2435 66.8394 53.2873 66.7852 53.4289L65.3059 57.298C65.2392 57.4725 64.9977 57.4867 64.911 57.3212Z" fill="#60C1F8" stroke="white" stroke-width="0.542471"/>
<defs>
<filter id="filter0_d_156_690" x="0" y="0" width="110" height="110" filterUnits="userSpaceOnUse" color-interpolation-filters="sRGB">
<feFlood flood-opacity="0" result="BackgroundImageFix"/>
<feColorMatrix in="SourceAlpha" type="matrix" values="0 0 0 0 0 0 0 0 0 0 0 0 0 0 0 0 0 0 127 0" result="hardAlpha"/>
<feOffset dy="10"/>
<feGaussianBlur stdDeviation="10"/>
<feComposite in2="hardAlpha" operator="out"/>
<feColorMatrix type="matrix" values="0 0 0 0 0 0 0 0 0 0 0 0 0 0 0 0 0 0 0.04 0"/>
<feBlend mode="normal" in2="BackgroundImageFix" result="effect1_dropShadow_156_690"/>
<feBlend mode="normal" in="SourceGraphic" in2="effect1_dropShadow_156_690" result="shape"/>
</filter>
</defs>
</svg>
